PathFileType	4	(X/Y/Z)	./resultDataOpenSim/trcMotMarkerGrf/sub10/qtm-04-01.trc
DataRate	CameraRate	NumFrames	NumMarkers	Units	OrigDataRate	OrigDataStartFrame	OrigNumFrames
250.000000	250.000000	8	24	m	250.000000	370	493
Frame#	Time	L.Toe.Tip			R.Toe.Tip			L.Ankle.Lat			R.Ankle.Lat			L.Ankle.Med			R.Ankle.Med			L.Heel			R.Heel			L.Knee.Lat			R.Knee.Lat			L.Knee.Med			R.Knee.Med			L.Thigh.Upper			R.Thigh.Upper			L.ASIS			R.ASIS			V.Sacral			L.Acromium			R.Acromium			C7			L.Elbow			R.Elbow			L.Wrist.Lat			R.Wrist.Lat
		X1	Y1	Z1	X2	Y2	Z2	X3	Y3	Z3	X4	Y4	Z4	X5	Y5	Z5	X6	Y6	Z6	X7	Y7	Z7	X8	Y8	Z8	X9	Y9	Z9	X10	Y10	Z10	X11	Y11	Z11	X12	Y12	Z12	X13	Y13	Z13	X14	Y14	Z14	X15	Y15	Z15	X16	Y16	Z16	X17	Y17	Z17	X18	Y18	Z18	X19	Y19	Z19	X20	Y20	Z20	X21	Y21	Z21	X22	Y22	Z22	X23	Y23	Z23	X24	Y24	Z24

370	1.476	0.72974285	0.092773272	-0.095730701	0.97020993	0.039189056	0.051960327	0.68371024	0.22329867	-0.11823827	0.8300655	0.054342953	0.10148317	0.71461838	0.22748459	-0.039777953	0.84461378	0.081066744	0.016183097	0.62886728	0.255529	-0.065209613	0.77590741	0.030567409	0.059874738	0.96626978	0.47098979	-0.16065405	0.91148761	0.44872228	0.12828348	0.99640534	0.43778511	-0.04249932	0.90270181	0.45578569	0.00065947881	0.82256758	0.81689788	-0.17998357	0.8709368	0.86447863	0.19476046	0.88930658	0.93116226	-0.12630638	0.93119869	0.94940726	0.11076991	0.70813161	0.96812897	0.022174294	0.86569053	1.4249782	-0.15488336	0.83790838	1.4233316	0.16013179	0.77403003	1.4431272	-0.0062625695	0.80357277	1.0925288	-0.24131388	0.72064983	1.0851533	0.21292312	0.93994531	0.89134835	-0.22203756	0.89953368	0.93735021	0.3063704
371	1.48	0.74683026	0.0916907	-0.09758854	0.97021957	0.039186969	0.051963727	0.69730871	0.22096589	-0.1188076	0.83006403	0.054394336	0.10146742	0.72963436	0.22522473	-0.040714606	0.84468605	0.081164218	0.016163827	0.64179397	0.25155503	-0.065235806	0.7757277	0.030663839	0.05983541	0.97556349	0.4738087	-0.16098693	0.9119758	0.44872336	0.1285399	1.0066686	0.44101756	-0.043294971	0.90326949	0.45567626	0.00061247973	0.82911443	0.81857185	-0.1810655	0.87524132	0.86524763	0.19435454	0.89515934	0.93249916	-0.12613118	0.93571982	0.95023789	0.11097695	0.71379024	0.96888708	0.020140884	0.87066874	1.4259227	-0.15501247	0.84267751	1.4243751	0.15999467	0.77904748	1.4441442	-0.0064286053	0.80610163	1.0944919	-0.24252609	0.72733645	1.0856219	0.21495302	0.93886531	0.89085521	-0.22425348	0.90984679	0.94067051	0.30541744
372	1.484	0.76397227	0.090554763	-0.099391959	0.97023473	0.039189496	0.051951017	0.71098826	0.2184459	-0.11938963	0.83007774	0.054444017	0.10143471	0.74462972	0.22285198	-0.0416607	0.84478212	0.081254626	0.01611334	0.65485894	0.24733739	-0.065317816	0.77557584	0.03077449	0.05978176	0.98471435	0.47653627	-0.1613147	0.91250516	0.44870803	0.12878766	1.0165415	0.44413157	-0.044049494	0.90399994	0.45551908	0.00065773244	0.83585309	0.82023968	-0.18196354	0.87945428	0.86595798	0.19397763	0.90114517	0.93379501	-0.12596707	0.94024278	0.95100208	0.11117981	0.71949081	0.96957932	0.018133402	0.87565118	1.4267871	-0.15514456	0.84744224	1.4253436	0.15985684	0.78406565	1.4451013	-0.0066038973	0.80863401	1.0963769	-0.24361173	0.73405156	1.0859403	0.21679909	0.93783802	0.8904029	-0.22642249	0.9200853	0.94395167	0.30446501
373	1.488	0.78119703	0.089350441	-0.10116025	0.97024973	0.039189113	0.051934074	0.72475828	0.21574198	-0.11998794	0.83010036	0.054496619	0.10137992	0.75928863	0.22037323	-0.042513072	0.84488368	0.081338711	0.016046991	0.66806871	0.2428869	-0.065481453	0.77557177	0.030892805	0.059669526	0.99372078	0.47917128	-0.16163929	0.91300748	0.44867154	0.12900523	1.0261898	0.44713099	-0.04476045	0.90492489	0.45534188	0.00083517104	0.84276319	0.821883	-0.18270539	0.88337731	0.86649229	0.19364707	0.90727269	0.93505841	-0.1258313	0.94476335	0.95169818	0.11138433	0.72521015	0.97021155	0.016185027	0.88064093	1.4275694	-0.15527759	0.85219595	1.4262258	0.15971603	0.78908653	1.4459899	-0.0067889065	0.81117808	1.0981448	-0.24449339	0.74066257	1.0861483	0.21835623	0.93688082	0.88999764	-0.22856004	0.93026389	0.9471913	0.30351306
374	1.492	0.79844988	0.08806466	-0.10288943	0.97026128	0.039177386	0.051917852	0.73861118	0.2128616	-0.12059627	0.83011991	0.054559717	0.10130204	0.77356817	0.21777934	-0.043258333	0.84497372	0.081401678	0.01596551	0.68138817	0.23822858	-0.065718316	0.77575579	0.031022499	0.059483841	1.002585	0.48170755	-0.16196292	0.91347099	0.44861281	0.12918759	1.0356333	0.45002896	-0.045428122	0.90593329	0.45517352	0.0010805354	0.84978291	0.82349269	-0.18334546	0.88706745	0.86684683	0.19335712	0.91344372	0.93628024	-0.12572195	0.94927467	0.95232858	0.11160068	0.73092408	0.97079005	0.014331379	0.88564327	1.4282695	-0.15541057	0.85693311	1.4270155	0.1595686	0.79411204	1.4467933	-0.0069838143	0.8137252	1.0997937	-0.2452154	0.74718079	1.0862839	0.21970817	0.93598502	0.88963019	-0.23068886	0.94041066	0.95038398	0.3025639
375	1.496	0.81567572	0.086705765	-0.10457371	0.97027006	0.039152159	0.051899916	0.75253546	0.20981162	-0.12121174	0.83012554	0.054640182	0.10120577	0.78765217	0.21506022	-0.043954897	0.84502168	0.08142952	0.015871995	0.69476348	0.23338917	-0.065995377	0.77604364	0.031176025	0.059259162	1.0113283	0.48412988	-0.16228658	0.91398029	0.44854991	0.12937327	1.0448003	0.4528193	-0.046079605	0.90689118	0.45503596	0.0013146089	0.8568905	0.82506389	-0.1839031	0.89075762	0.86713729	0.19309225	0.91956931	0.93744523	-0.12563195	0.95376859	0.95289563	0.11183265	0.73660619	0.97132209	0.012609203	0.89065886	1.428886	-0.15554294	0.86166205	1.4277213	0.15941816	0.79914058	1.4475101	-0.0071887424	0.81626608	1.1013483	-0.24586693	0.75369738	1.0863604	0.22098149	0.93512458	0.88928364	-0.23281304	0.95053536	0.95352281	0.30162285
376	1.5	0.83293077	0.085307548	-0.10623	0.97028062	0.039123432	0.051877796	0.76654407	0.20659553	-0.12184867	0.8301162	0.054737744	0.10109991	0.80173809	0.21221223	-0.044663797	0.84503133	0.081441794	0.015771047	0.70821257	0.22837371	-0.06631041	0.77630388	0.031358641	0.059040879	1.0200045	0.48640865	-0.16261154	0.91461762	0.44849722	0.12960014	1.0537299	0.45547686	-0.046736725	0.90773939	0.45494956	0.0015096299	0.86407599	0.82658333	-0.18438268	0.89456679	0.86744482	0.1928481	0.92563946	0.93854546	-0.12555693	0.95824078	0.95339646	0.1120636	0.74222811	0.97181603	0.011048512	0.89568181	1.4294161	-0.15567893	0.86640396	1.4283599	0.15927569	0.80416705	1.4481564	-0.0074049059	0.81879605	1.1028381	-0.24651609	0.76027925	1.0863762	0.22224826	0.93425104	0.88895243	-0.23494054	0.96061903	0.95660572	0.3006932
377	1.504	0.85037499	0.083916271	-0.10789749	0.970298	0.039105043	0.051850199	0.78066569	0.20321694	-0.12252703	0.83010709	0.054841508	0.100991	0.81594909	0.20923451	-0.045419467	0.84504946	0.081471533	0.015656513	0.72184931	0.22316783	-0.066704018	0.77644663	0.031551311	0.058851513	1.0286868	0.48851189	-0.1629396	0.91540164	0.4484539	0.12987616	1.0626117	0.4579858	-0.04739216	0.90852584	0.45491379	0.0016779745	0.87126048	0.82803003	-0.18483089	0.89845382	0.86775548	0.19262617	0.93167839	0.93957942	-0.12549394	0.96269719	0.95382876	0.11226896	0.74776489	0.97227903	0.0096576586	0.90070907	1.4298588	-0.15582386	0.87117178	1.428937	0.15914787	0.80918606	1.4487417	-0.0076316474	0.82130967	1.1042795	-0.2471974	0.76694472	1.0863237	0.22352379	0.93332723	0.88863834	-0.23708057	0.97064012	0.95963264	0.29977048
